<svg id="svg" version="1.1" width="400" height="400" xmlns="http://www.w3.org/2000/svg" xmlns:xlink="http://www.w3.org/1999/xlink" style="display: block;"><g id="backg"><path id="path0" d="M0.000 200.000 L 0.000 400.000 200.000 400.000 L 400.000 400.000 400.000 200.000 L 400.000 0.000 200.000 0.000 L 0.000 0.000 0.000 200.000 M76.369 135.411 C 84.081 136.784,92.396 139.850,98.400 143.534 C 99.170 144.007,100.065 144.519,100.388 144.673 C 101.090 145.008,107.313 149.229,107.600 149.565 C 107.710 149.694,108.700 150.497,109.800 151.350 C 112.041 153.086,121.600 162.694,121.600 163.211 C 121.600 163.393,121.832 163.781,122.117 164.071 C 125.225 167.252,133.200 182.915,133.200 185.840 C 133.200 186.154,133.373 186.723,133.584 187.105 C 134.150 188.131,135.788 196.047,136.831 202.800 C 137.482 207.015,137.471 216.818,136.811 221.268 C 135.763 228.332,134.184 236.143,133.570 237.295 C 133.367 237.677,133.200 238.275,133.200 238.625 C 133.200 239.252,129.915 249.445,129.212 251.000 C 128.279 253.064,128.366 253.370,130.115 254.172 C 134.802 256.318,146.076 264.079,148.975 267.154 C 150.514 268.786,151.009 268.610,155.046 265.000 C 164.644 256.417,178.507 248.047,189.167 244.396 C 203.482 239.495,222.364 238.515,234.600 242.038 C 255.909 248.172,273.521 262.190,281.910 279.692 C 282.619 281.172,283.200 282.621,283.200 282.912 C 283.200 283.202,283.350 283.611,283.534 283.820 C 284.161 284.534,285.417 288.695,286.781 294.580 C 291.597 315.361,283.742 339.672,267.615 353.899 C 263.034 357.941,257.680 362.000,256.931 362.000 C 256.828 362.000,256.441 362.305,256.071 362.678 C 255.442 363.313,255.450 363.336,256.200 363.045 C 267.880 358.519,285.420 366.157,291.001 378.200 C 294.468 385.680,293.398 390.058,287.057 394.340 C 270.737 405.360,248.729 394.056,248.625 374.600 C 248.601 369.929,249.085 368.318,251.181 366.100 C 252.307 364.908,252.151 364.944,248.513 366.715 C 245.241 368.307,240.104 370.283,236.400 371.374 C 235.190 371.731,233.660 372.189,233.000 372.393 C 231.747 372.781,228.151 373.456,224.400 374.008 C 221.333 374.460,208.341 374.452,205.200 373.997 C 198.642 373.045,191.050 371.085,186.600 369.194 C 186.160 369.007,185.080 368.548,184.200 368.174 C 178.821 365.890,171.875 362.250,167.001 359.162 C 164.862 357.806,164.574 357.718,164.340 358.350 C 159.823 370.560,140.161 388.246,125.200 393.555 C 123.770 394.063,122.240 394.618,121.800 394.789 C 120.471 395.306,116.768 396.301,113.800 396.940 C 112.260 397.271,109.920 397.780,108.600 398.071 C 105.292 398.800,87.512 398.801,84.200 398.072 C 77.424 396.580,72.619 395.182,69.200 393.707 C 44.968 383.253,29.144 365.244,23.593 341.800 C 22.915 338.940,22.164 335.790,21.923 334.800 C 21.304 332.262,21.038 316.055,21.554 312.400 C 23.389 299.410,28.222 287.939,36.491 276.950 C 38.091 274.823,39.580 272.834,39.800 272.530 C 40.069 272.158,40.062 271.883,39.778 271.689 C 38.904 271.091,32.551 266.178,31.400 265.210 C 26.520 261.104,20.660 254.777,15.274 247.800 C 12.987 244.838,6.800 233.212,6.800 231.878 C 6.800 231.593,6.643 231.189,6.450 230.980 C 5.604 230.061,3.059 220.425,2.314 215.323 C 1.301 208.378,1.798 192.195,3.191 186.800 C 3.389 186.030,3.845 184.230,4.204 182.800 C 5.208 178.794,5.847 177.008,7.975 172.272 C 8.649 170.772,9.200 169.463,9.200 169.365 C 9.200 169.266,9.920 168.000,10.800 166.552 C 11.680 165.103,12.400 163.865,12.400 163.799 C 12.400 163.568,15.289 159.377,16.535 157.800 C 23.932 148.443,35.331 141.048,48.000 137.388 C 52.092 136.205,52.994 135.996,55.788 135.576 C 57.322 135.345,58.657 135.076,58.755 134.978 C 59.229 134.504,73.205 134.848,76.369 135.411 " stroke="none" fill="#000000" fill-rule="evenodd"></path><path id="greys" d="M58.755 134.978 C 58.657 135.076,57.322 135.345,55.788 135.576 C 52.994 135.996,52.092 136.205,48.000 137.388 C 35.331 141.048,23.932 148.443,16.535 157.800 C 15.289 159.377,12.400 163.568,12.400 163.799 C 12.400 163.865,11.680 165.103,10.800 166.552 C 9.920 168.000,9.200 169.266,9.200 169.365 C 9.200 169.463,8.649 170.772,7.975 172.272 C 5.847 177.008,5.208 178.794,4.204 182.800 C 3.845 184.230,3.389 186.030,3.191 186.800 C 1.798 192.195,1.301 208.378,2.314 215.323 C 3.059 220.425,5.604 230.061,6.450 230.980 C 6.643 231.189,6.800 231.593,6.800 231.878 C 6.800 233.212,12.987 244.838,15.274 247.800 C 20.660 254.777,26.520 261.104,31.400 265.210 C 32.551 266.178,38.904 271.091,39.778 271.689 C 40.062 271.883,40.069 272.158,39.800 272.530 C 39.580 272.834,38.091 274.823,36.491 276.950 C 28.222 287.939,23.389 299.410,21.554 312.400 C 21.038 316.055,21.304 332.262,21.923 334.800 C 22.164 335.790,22.915 338.940,23.593 341.800 C 29.144 365.244,44.968 383.253,69.200 393.707 C 72.619 395.182,77.424 396.580,84.200 398.072 C 87.364 398.768,105.283 398.801,108.400 398.117 C 117.612 396.093,121.442 395.101,121.881 394.627 C 122.058 394.435,121.755 394.403,121.200 394.554 C 100.499 400.187,84.764 399.692,68.619 392.900 C 49.219 384.738,33.839 369.367,26.896 351.200 C 20.519 334.515,19.893 315.077,25.218 299.145 C 27.957 290.953,32.390 282.851,38.251 275.327 L 40.801 272.054 39.100 270.709 C 29.029 262.744,24.091 258.129,19.390 252.287 C -2.505 225.081,-3.973 186.579,15.855 159.556 C 30.748 139.259,60.628 130.117,85.528 138.239 C 106.061 144.936,124.188 162.241,131.368 182.000 C 132.919 186.267,133.140 186.748,133.173 185.934 C 133.288 183.107,125.317 167.346,122.117 164.071 C 121.832 163.781,121.600 163.393,121.600 163.211 C 121.600 162.694,112.041 153.086,109.800 151.350 C 108.700 150.497,107.710 149.694,107.600 149.565 C 107.313 149.229,101.090 145.008,100.388 144.673 C 100.065 144.519,99.170 144.007,98.400 143.534 C 92.396 139.850,84.081 136.784,76.369 135.411 C 73.205 134.848,59.229 134.504,58.755 134.978 M133.200 187.023 C 133.200 187.233,133.381 188.034,133.603 188.803 C 133.824 189.571,134.288 191.550,134.634 193.200 C 137.743 208.022,137.567 218.161,133.928 233.945 C 133.503 235.785,133.252 237.385,133.369 237.502 C 133.628 237.762,133.756 237.359,134.539 233.800 C 138.372 216.382,138.339 208.352,134.358 189.600 C 133.941 187.637,133.200 185.987,133.200 187.023 M132.622 239.000 C 131.984 241.503,130.819 245.120,129.595 248.400 C 127.611 253.718,127.574 253.367,130.258 254.771 C 137.129 258.362,143.424 262.659,148.400 267.152 C 150.775 269.297,150.569 269.356,155.718 265.059 C 179.157 245.496,199.759 238.471,226.600 240.888 C 229.047 241.109,229.565 241.074,228.800 240.743 C 228.250 240.504,224.290 240.219,220.000 240.109 C 196.920 239.517,180.575 245.199,160.000 260.967 C 158.570 262.063,157.199 263.149,156.953 263.380 C 155.218 265.012,150.868 268.400,150.508 268.400 C 150.311 268.400,149.621 267.839,148.975 267.154 C 146.076 264.079,134.802 256.318,130.115 254.172 C 128.366 253.370,128.279 253.064,129.212 251.000 C 130.211 248.790,133.224 239.041,133.086 238.464 C 132.983 238.029,132.822 238.214,132.622 239.000 M231.000 241.581 C 231.660 241.783,233.370 242.242,234.800 242.601 C 253.959 247.409,272.484 262.061,281.049 279.179 C 282.211 281.501,283.170 283.171,283.181 282.892 C 283.207 282.194,280.951 277.550,279.054 274.400 C 271.063 261.125,255.248 248.791,239.600 243.629 C 233.873 241.739,233.541 241.648,231.600 241.423 C 230.087 241.247,229.991 241.272,231.000 241.581 M283.200 283.733 C 283.200 283.894,283.441 284.605,283.736 285.313 C 284.810 287.893,286.517 295.475,287.039 299.981 L 287.573 304.600 287.421 300.600 C 287.275 296.767,287.078 295.569,285.711 290.200 C 284.688 286.187,283.200 282.353,283.200 283.733 M287.742 308.200 C 287.741 310.180,287.808 311.040,287.892 310.112 C 287.976 309.184,287.977 307.564,287.895 306.512 C 287.812 305.460,287.743 306.220,287.742 308.200 M287.072 315.400 C 283.825 351.045,246.485 377.423,204.800 373.519 C 202.497 373.303,202.032 373.338,202.800 373.670 C 204.232 374.288,220.336 374.570,224.000 374.041 C 228.571 373.381,231.239 372.886,233.000 372.370 C 233.880 372.113,235.500 371.637,236.600 371.314 C 242.627 369.543,256.400 363.314,256.400 362.359 C 256.400 362.162,256.562 362.000,256.760 362.000 C 258.474 362.000,269.110 353.054,273.302 348.087 C 281.939 337.852,287.999 323.390,287.521 314.151 C 287.405 311.897,287.386 311.949,287.072 315.400 M30.181 316.900 L 28.600 318.600 30.300 317.019 C 31.235 316.149,32.000 315.384,32.000 315.319 C 32.000 315.016,31.652 315.319,30.181 316.900 M178.093 322.400 C 178.093 323.170,178.175 323.485,178.276 323.100 C 178.376 322.715,178.376 322.085,178.276 321.700 C 178.175 321.315,178.093 321.630,178.093 322.400 M59.314 327.400 C 59.317 328.500,59.395 328.903,59.487 328.295 C 59.579 327.686,59.577 326.786,59.482 326.295 C 59.387 325.803,59.311 326.300,59.314 327.400 M23.720 333.600 C 23.720 334.810,23.795 335.305,23.887 334.700 C 23.978 334.095,23.978 333.105,23.887 332.500 C 23.795 331.895,23.720 332.390,23.720 333.600 M51.375 347.700 L 50.200 349.000 51.500 347.825 C 52.712 346.730,52.984 346.400,52.675 346.400 C 52.606 346.400,52.021 346.985,51.375 347.700 M30.383 350.500 C 31.364 351.545,32.219 352.400,32.283 352.400 C 32.584 352.400,32.266 352.041,30.500 350.383 L 28.600 348.600 30.383 350.500 M38.100 355.087 C 38.705 355.178,39.695 355.178,40.300 355.087 C 40.905 354.995,40.410 354.920,39.200 354.920 C 37.990 354.920,37.495 354.995,38.100 355.087 M163.576 357.491 C 163.161 358.039,163.158 358.095,163.563 357.736 C 163.971 357.375,164.675 357.651,166.744 358.981 C 171.630 362.123,178.611 365.800,184.200 368.174 C 185.080 368.548,186.160 369.012,186.600 369.205 C 187.274 369.502,191.750 370.938,196.619 372.422 C 197.289 372.626,198.729 372.884,199.819 372.995 C 201.995 373.217,201.291 372.952,197.200 372.009 C 191.589 370.715,181.614 366.866,176.289 363.939 C 174.749 363.093,173.430 362.400,173.359 362.400 C 173.220 362.400,166.617 358.423,165.042 357.391 C 164.197 356.837,164.064 356.846,163.576 357.491 M161.996 361.497 C 157.453 368.962,152.462 374.994,146.508 380.215 C 140.388 385.581,131.842 390.720,124.890 393.214 C 123.510 393.709,122.469 394.203,122.577 394.311 C 122.842 394.576,127.155 392.945,130.600 391.278 C 141.079 386.206,150.312 378.536,157.418 369.000 C 160.858 364.383,164.614 358.481,164.308 358.174 C 164.208 358.075,163.168 359.570,161.996 361.497 M66.800 364.525 C 66.800 364.594,67.385 365.179,68.100 365.825 L 69.400 367.000 68.225 365.700 C 67.130 364.488,66.800 364.216,66.800 364.525 M104.500 381.876 C 104.885 381.976,105.515 381.976,105.900 381.876 C 106.285 381.775,105.970 381.693,105.200 381.693 C 104.430 381.693,104.115 381.775,104.500 381.876 " stroke="none" fill="#575757" fill-rule="evenodd"></path><path id="head" d="M60.000 135.387 C 59.670 135.464,58.050 135.741,56.400 136.002 C 23.255 141.236,2.217 167.554,2.203 203.800 C 2.196 222.552,7.498 237.511,19.390 252.287 C 24.091 258.129,29.029 262.744,39.100 270.709 L 40.801 272.054 38.251 275.327 C 22.967 294.947,17.922 318.533,24.032 341.800 C 25.954 349.117,27.019 352.069,29.561 357.123 C 47.035 391.868,87.929 407.185,125.400 393.020 C 137.855 388.311,149.196 379.509,157.670 367.974 C 158.871 366.338,160.900 363.290,162.179 361.200 C 163.457 359.110,164.546 357.349,164.598 357.287 C 164.651 357.224,166.112 358.051,167.847 359.124 C 196.319 376.736,223.622 378.795,250.200 365.334 C 283.915 348.258,296.981 311.399,280.860 278.843 C 272.602 262.167,253.771 247.350,234.800 242.603 C 233.370 242.245,231.570 241.792,230.800 241.597 C 223.068 239.637,206.863 240.269,195.600 242.971 C 182.861 246.026,169.963 253.170,155.718 265.059 C 150.569 269.356,150.775 269.297,148.400 267.152 C 143.424 262.659,137.129 258.362,130.258 254.771 C 127.574 253.367,127.611 253.718,129.595 248.400 C 130.293 246.530,131.210 243.830,131.634 242.400 C 132.058 240.970,132.573 239.260,132.779 238.600 C 137.171 224.538,137.865 209.488,134.833 194.091 C 129.222 165.604,106.937 142.680,78.687 136.336 C 75.297 135.574,62.058 134.902,60.000 135.387 M175.878 301.000 C 181.035 315.804,178.275 335.099,168.815 350.366 C 142.281 393.186,77.112 392.287,55.404 348.800 C 54.580 347.150,53.869 345.757,53.824 345.704 C 53.778 345.651,52.128 347.181,50.156 349.104 C 42.242 356.820,36.998 357.172,30.377 350.432 C 17.317 337.137,23.840 315.301,42.583 309.567 C 56.701 305.249,64.774 325.615,55.550 342.278 C 54.918 343.421,54.400 344.439,54.400 344.541 C 54.400 344.642,55.975 344.277,57.900 343.730 C 87.730 335.259,126.997 320.935,154.082 308.644 C 165.419 303.500,170.704 301.056,172.304 300.219 C 174.733 298.948,175.198 299.050,175.878 301.000 " stroke="none" fill="#ffffff" fill-rule="evenodd"></path><path id="eyes" d="M171.400 300.826 C 164.577 304.092,151.704 310.000,151.408 310.000 C 151.324 310.000,150.118 310.522,148.728 311.159 C 145.189 312.782,139.140 315.328,132.800 317.864 C 129.830 319.052,127.040 320.180,126.600 320.370 C 123.885 321.548,106.907 328.005,104.400 328.813 C 103.850 328.990,101.060 329.972,98.200 330.996 C 92.453 333.053,81.295 336.763,74.800 338.777 C 72.490 339.493,70.150 340.233,69.600 340.421 C 67.464 341.152,56.529 344.342,55.257 344.605 L 53.915 344.882 55.332 342.341 C 61.690 330.940,59.748 314.414,51.552 310.175 C 44.881 306.726,30.856 313.394,26.684 322.000 C 20.030 335.724,27.365 354.800,39.297 354.800 C 43.360 354.800,50.380 350.163,53.183 345.627 C 53.566 345.008,53.843 345.401,56.291 350.032 C 76.453 388.177,133.752 392.944,162.411 358.862 C 176.656 341.921,181.634 321.382,176.097 302.400 C 175.132 299.095,175.064 299.072,171.400 300.826 M259.600 362.236 C 251.429 363.731,248.585 366.936,248.625 374.600 C 248.729 394.056,270.737 405.360,287.057 394.340 C 293.398 390.058,294.468 385.680,291.001 378.200 C 285.955 367.310,271.640 360.033,259.600 362.236 " stroke="none" fill="#ff0245" fill-rule="evenodd"></path></g></svg>